#!OML:ASF F:\VICON\USERDATA\INSTALL\rory3\rory3.ASF
:FULLY-SPECIFIED
:DEGREES
66
root 0.45932801075715035 18.14524932133237 31.03732601980049 2.3678670863052433 2.972934883394852 -2.5432396226084233
lfemur -21.755203273843758 -0.35646723024046345 -20.400314521566344
ltibia 32.31165184304795
lfoot 4.5316846886493884 -10.036994587488982
ltoes -8.703368665682378
rfemur -3.7364098453902326 3.733077689025082 30.023901366385253
rtibia 44.92639140224592
rfoot 5.329821418355356 -6.29561225075017
rtoes -4.082037819758142
lowerback 11.880454880273865 1.7552243387457884 4.898434033335769
upperback -0.9777016790918807 3.5999505232430193 1.6001483770496487
thorax -8.153745128530677 1.582811150531663 -1.1077367604895676
lowerneck -18.223224989976575 -4.6782541156124555 -2.3063624890650405
upperneck 13.863931076259147 -6.225493618645482 3.2652947811286857
head 7.3803722223494646 -2.8901936899523415 0.7480311170552201
lclavicle 3.0724525846122443e-16 -4.306739325979878e-16
lhumerus -53.06777144681932 -11.201018987114395 97.86901151862486
lradius 110.0621286334286
lwrist 31.81781444050793
lhand -26.01860844835963 2.737916779565073
lfingers 7.125020000000001
lthumb 0.70793644772855 32.71459315554733
rclavicle 3.072379149893675e-16 -4.306781243394096e-16
rhumerus -36.9806422048284 10.543071473842769 -95.29687720048105
rradius 102.5456985347117
rwrist -19.525894294336908
rhand -18.413913849501593 37.69018140595651
rfingers 7.125020000000001
rthumb 7.78961887489928 7.491105142818994
67
root 0.4390049115539587 18.043208537187017 30.56582466494924 1.9865910512101512 3.0198656045181966 -2.2900550567799494
lfemur -24.160805950152692 -1.0731886631852414 -21.885509026366893
ltibia 32.06387419135238
lfoot 5.185159538129973 -10.643009882482062
ltoes -7.949800064248685
rfemur -4.3523741071307676 3.5792941003696592 29.767032937717772
rtibia 47.36043465761972
rfoot 5.670435379168788 -6.569863674182202
rtoes -3.9499894476092727
lowerback 11.796170079283037 1.7165161602956918 4.54225335231683
upperback -1.065577794626361 3.687441258041683 1.468164456026821
thorax -8.096819993672524 1.6135850513114516 -1.0309424479676557
lowerneck -18.24676175723548 -4.630656412261283 -2.310803944549373
upperneck 13.762307499921986 -6.180178616244485 3.3043890773627282
head 7.382945809980146 -2.860618206116064 0.7714343347635118
lclavicle 3.0724525846122443e-16 -4.306739325979878e-16
lhumerus -52.15981074514316 -11.784200085722098 97.78887702693225
lradius 109.45358331621438
lwrist 31.77282958948876
lhand -26.124509226427044 2.7348341481834106
lfingers 7.125020000000001
lthumb 0.5986320713873731 32.73003920596617
rclavicle 3.072379149893675e-16 -4.306781243394096e-16
rhumerus -38.254714423532214 10.438596930271402 -95.58686964971047
rradius 102.39047069933324
rwrist -19.469475370368485
rhand -18.44758818790134 37.65705175190163
rfingers 7.125020000000001
rthumb 7.828275642254841 7.533053161649918
68
root 0.41272082807470123 17.899912656734134 30.048624051445962 1.544337958344188 3.105250297834637 -1.9730762750647257
lfemur -20.653440025596048 -1.0117829441885364 -21.668837151162542
ltibia 33.29107334950864
lfoot 6.817348185479438 -11.165281414639189
ltoes -6.744248887694146
rfemur -5.494101360537087 3.6876094941535422 29.745912383896666
rtibia 50.159673378559866
rfoot 5.702443049363727 -6.82892174202308
rtoes -3.870133553789717
lowerback 11.818912160684338 1.6276782615867427 4.083518066768795
upperback -1.0805971881371152 3.896687973925645 1.4206542948091223
thorax -8.044903844294591 1.5805614787144913 -1.0058908214735385
lowerneck -18.33651183631076 -4.602871013456754 -2.329472699252079
upperneck 13.722452410879718 -6.096578199915867 3.354600028735183
head 7.387157030701171 -2.8236764259710223 0.7860493909328369
lclavicle 3.0724525846122443e-16 -4.306739325979878e-16
lhumerus -51.531432289550295 -12.285796807595588 97.74006761987425
lradius 108.92709408154415
lwrist 31.730789047486876
lhand -26.14633985450368 2.8415643495740146
lfingers 7.125020000000001
lthumb 0.5630316017018729 32.83136232991014
rclavicle 3.072379149893675e-16 -4.306781243394096e-16
rhumerus -38.73079226039145 10.473143994561068 -95.71316926654474
rradius 102.29113300674402
rwrist -19.390107027699855
rhand -18.433966355125047 37.666247060208754
rfingers 7.125020000000001
rthumb 7.793501659492337 7.490668432206924
69
root 0.3810112795557475 17.722453182879956 29.285623943688925 1.1024056100636672 3.127090028250661 -1.5982468193350117
lfemur -20.092743714401667 -1.1457017747162608 -21.87146664892296
ltibia 35.86112124877087
lfoot 7.328539941858679 -11.660352145293569
ltoes -6.382888833608531
rfemur -6.165619996103693 3.6334362313895863 29.630781692341035
rtibia 53.214332025882385
rfoot 5.602630928810246 -7.23380079286383
rtoes -3.7418535222308895
lowerback 11.995593876465316 1.5140741211967033 3.6169804574655435
upperback -1.0860378395797334 3.8366151453781674 1.305406330338993
thorax -8.054888634962971 1.5144433675948854 -1.0043377488039738
lowerneck -18.48427160630158 -4.593907927309749 -2.34822936324396
upperneck 13.64921089442992 -6.0827761742509034 3.3492497240031383
head 7.395233811223289 -2.7442984492127915 0.8151748373867223
lclavicle 3.0724525846122443e-16 -4.306739325979878e-16
lhumerus -49.41985319051854 -12.668769632344334 97.87889862433133
lradius 108.32831478615003
lwrist 31.70485937233882
lhand -26.147097413381267 2.958202099038108
lfingers 7.125020000000001
lthumb 0.4919896432468991 32.88688716672532
rclavicle 3.072379149893675e-16 -4.306781243394096e-16
rhumerus -39.95556943581132 10.331741167065761 -95.99126506571633
rradius 102.26747994080235
rwrist -19.310612458821254
rhand -18.46000980885076 37.60142189481249
rfingers 7.125020000000001
rthumb 7.831680047055714 7.453851295124474
